<svg xmlns="http://www.w3.org/2000/svg" width="343.58496" height="97.91992" viewBox="0 0 343.58496 97.91992">
  <defs>
    <style>
      .cls-1 {
        fill: #231f20;
      }
    </style>
  </defs>
  <g id="Layer_2" data-name="Layer 2">
    <g id="Content">
      <g id="_1400" data-name="1400">
        <path class="cls-1" d="M10.95172,14.027c-.66662.2547-1.33978.50091-2.024.73273A39.69309,39.69309,0,0,1,0,16.7041l.42468,6.10864Z"/>
        <polygon class="cls-1" points="32.201 1.44 29.813 1.44 30.983 7.099 32.201 1.44"/>
        <path class="cls-1" d="M30.98273,7.09924l-1.1698-5.6593h-.725A19.70183,19.70183,0,0,1,24.4082,6.48q-1.51171,1.1955-3.23047,2.32007l4.47516,12.45068,2.449-.764Z"/>
        <polygon class="cls-1" points="28.102 20.487 25.653 21.251 27.082 25.227 28.102 20.487"/>
        <polygon class="cls-1" points="30.983 7.099 28.102 20.487 33.408 18.831 30.983 7.099"/>
        <polygon class="cls-1" points="28.102 20.487 27.082 25.227 34.115 44.794 37.874 40.439 33.408 18.831 28.102 20.487"/>
        <polygon class="cls-1" points="37.874 40.439 55.152 20.42 55.152 12.048 33.408 18.831 37.874 40.439"/>
        <polygon class="cls-1" points="30.983 7.099 33.408 18.831 55.152 12.048 55.152 1.44 32.201 1.44 30.983 7.099"/>
        <polygon class="cls-1" points="42.828 64.407 55.152 36.452 55.152 20.42 37.874 40.439 42.828 64.407"/>
        <polygon class="cls-1" points="34.115 44.794 41.912 66.486 42.828 64.407 37.874 40.439 34.115 44.794"/>
        <polygon class="cls-1" points="43.772 68.973 55.152 66.565 55.152 36.452 42.828 64.407 43.772 68.973"/>
        <polygon class="cls-1" points="42.828 64.407 41.912 66.486 42.874 69.163 43.772 68.973 42.828 64.407"/>
        <path class="cls-1" d="M.85394,28.98718,1.87207,43.63184a32.79665,32.79665,0,0,0,11.23242-3.81592A57.00664,57.00664,0,0,0,23.04,32.832V44.00946l4.04187-18.7829-1.429-3.97583Z"/>
        <path class="cls-1" d="M21.17773,8.80005q-1.801,1.18131-3.82519,2.28784A52.51314,52.51314,0,0,1,10.95172,14.027l-10.527,8.7857.42926,6.17444,24.79895-7.73645Z"/>
        <polygon class="cls-1" points="23.04 57.626 23.04 73.361 40.511 69.663 41.912 66.486 34.115 44.794 23.04 57.626"/>
        <polygon class="cls-1" points="40.511 69.663 42.874 69.163 41.912 66.486 40.511 69.663"/>
        <path class="cls-1" d="M23.04,44.00946V57.62628L34.11517,44.79437,27.08191,25.22656Z"/>
        <polygon class="cls-1" points="45.08 75.302 52.693 96.48 55.152 96.48 55.152 66.565 43.772 68.973 45.08 75.302"/>
        <polygon class="cls-1" points="45.08 75.302 43.772 68.973 42.874 69.163 45.08 75.302"/>
        <polygon class="cls-1" points="23.04 96.48 28.688 96.48 40.511 69.663 23.04 73.361 23.04 96.48"/>
        <polygon class="cls-1" points="49.458 96.48 52.693 96.48 45.08 75.302 49.458 96.48"/>
        <polygon class="cls-1" points="40.511 69.663 28.688 96.48 49.458 96.48 45.08 75.302 42.874 69.163 40.511 69.663"/>
        <polygon class="cls-1" points="116.064 56.592 105.837 56.592 110.708 63.813 119.8 53.08 119.886 52.864 116.064 53.673 116.064 56.592"/>
        <polygon class="cls-1" points="102.274 56.592 94.061 58.33 91.076 72.038 93.009 78.336 98.405 78.336 110.708 63.813 105.837 56.592 102.274 56.592"/>
        <polygon class="cls-1" points="87.306 59.76 91.076 72.038 94.061 58.33 87.306 59.76"/>
        <polygon class="cls-1" points="119.8 53.08 120.004 52.839 119.886 52.864 119.8 53.08"/>
        <polygon class="cls-1" points="87.306 59.76 69.265 63.578 69.265 78.336 89.705 78.336 91.076 72.038 87.306 59.76"/>
        <polygon class="cls-1" points="91.076 72.038 89.705 78.336 93.009 78.336 91.076 72.038"/>
        <polygon class="cls-1" points="113.721 68.278 119.8 53.08 110.708 63.813 113.721 68.278"/>
        <polygon class="cls-1" points="98.405 78.336 109.698 78.336 113.721 68.278 110.708 63.813 98.405 78.336"/>
        <polygon class="cls-1" points="125.798 51.613 120.004 52.839 119.8 53.08 113.721 68.278 132.616 96.286 125.798 51.613"/>
        <polygon class="cls-1" points="132.646 96.48 132.616 96.286 113.721 68.278 109.698 78.336 115.632 78.336 115.632 96.48 132.646 96.48"/>
        <polygon class="cls-1" points="157.248 56.592 144.433 56.592 144.433 47.669 127.649 51.221 144.433 82.189 144.433 78.336 157.248 78.336 157.248 56.592"/>
        <polygon class="cls-1" points="125.798 51.613 132.616 96.286 132.747 96.48 144.433 96.48 144.433 82.189 127.649 51.221 125.798 51.613"/>
        <polygon class="cls-1" points="132.646 96.48 132.747 96.48 132.616 96.286 132.646 96.48"/>
        <polygon class="cls-1" points="102.946 5.644 87.448 29.335 97.22 43.82 104.791 9.048 102.946 5.644"/>
        <path class="cls-1" d="M97.22015,43.8197l2.78827,4.133L110.5918,31.68018q1.43847-2.16064,2.80859-4.6084c.19867-.35559.3844-.71186.58087-1.06751l-9.18994-16.956Z"/>
        <path class="cls-1" d="M116.08417,29.88434c-.01288.82812-.01972,1.62152-.01972,2.37152v21.4173l3.822-.80884,3.6742-9.18549Z"/>
        <polygon class="cls-1" points="118.14 1.44 106.448 1.44 105.496 5.812 119.921 13.112 118.14 1.44"/>
        <polygon class="cls-1" points="105.696 1.44 103.497 4.801 105.496 5.812 106.448 1.44 105.696 1.44"/>
        <polygon class="cls-1" points="103.497 4.801 102.946 5.644 104.791 9.048 105.496 5.812 103.497 4.801"/>
        <path class="cls-1" d="M119.92126,13.11188,105.496,5.81232l-.70465,3.236,9.18994,16.956c.70478-1.27551,1.40735-2.5509,2.08319-3.82849h.28809q-.145,2.73706-.21582,5.32813c-.02387.828-.04071,1.61859-.05255,2.38043l7.47644,13.79449.74273-1.85687Z"/>
        <path class="cls-1" d="M94.03223,56.5918c.19787-.25714.37988-.50409.57177-.75739L97.22015,43.8197,87.44806,29.33484,83.08789,36c-.72229,1.09467-1.41724,2.15222-2.09717,3.18939l6.31537,20.57019,6.75452-1.4295.37848-1.73828Z"/>
        <path class="cls-1" d="M96.69629,52.99219q1.22167-1.72852,2.376-3.6001l.93615-1.43939-2.78827-4.133L94.604,55.83441C95.342,54.86017,96.04834,53.90637,96.69629,52.99219Z"/>
        <polygon class="cls-1" points="94.439 56.592 94.061 58.33 102.274 56.592 94.439 56.592"/>
        <polygon class="cls-1" points="123.561 43.679 124.989 46.314 124.303 41.822 123.561 43.679"/>
        <polygon class="cls-1" points="124.989 46.314 123.561 43.679 119.886 52.864 120.004 52.839 125.072 46.857 124.989 46.314"/>
        <path class="cls-1" d="M80.99072,39.18939q-3.45327,5.26776-6.18213,9.55475-3.53026,5.54517-5.54394,9.2876v5.54614l18.04144-3.8183Z"/>
        <polygon class="cls-1" points="125.072 46.857 120.004 52.839 125.798 51.613 125.072 46.857"/>
        <polygon class="cls-1" points="118.14 1.44 119.921 13.112 133.117 19.789 140.456 1.44 118.14 1.44"/>
        <polygon class="cls-1" points="119.921 13.112 124.303 41.822 133.117 19.789 119.921 13.112"/>
        <polygon class="cls-1" points="144.433 24.002 144.433 1.44 140.456 1.44 133.117 19.789 143.536 25.061 144.433 24.002"/>
        <polygon class="cls-1" points="133.117 19.789 124.303 41.822 124.989 46.314 125.201 46.705 143.536 25.061 133.117 19.789"/>
        <polygon class="cls-1" points="125.072 46.857 125.201 46.705 124.989 46.314 125.072 46.857"/>
        <polygon class="cls-1" points="144.433 24.002 143.536 25.061 144.433 25.515 144.433 24.002"/>
        <polygon class="cls-1" points="143.536 25.061 125.201 46.705 127.649 51.221 144.433 47.669 144.433 25.515 143.536 25.061"/>
        <polygon class="cls-1" points="125.072 46.857 125.798 51.613 127.649 51.221 125.201 46.705 125.072 46.857"/>
        <path class="cls-1" d="M193.07025,1.50928Q181.59,4.28881,174.88867,12.23975A35.0452,35.0452,0,0,0,170.796,18.338l13.74463,14.82563Z"/>
        <path class="cls-1" d="M165.41473,36.13263q-.47689,3.45465-.67614,7.23914l10.56378-2.23572Z"/>
        <path class="cls-1" d="M182.82117,39.54474l1.71948-6.3811L170.796,18.338a53.08161,53.08161,0,0,0-5.38129,17.79462l9.88764,5.00342Z"/>
        <path class="cls-1" d="M197.96954,36.33875c.07526-.67707.1554-1.32813.24628-1.92273a15.49031,15.49031,0,0,1,2.01367-6.13013l3.94275-23.77258L200.30182.33118a52.41022,52.41022,0,0,0-7.23157,1.1781l-8.5296,31.65436,4.66339,5.03021Z"/>
        <path class="cls-1" d="M204.91522.03369c-1.59186.04059-3.11853.15186-4.6134.29749l3.87042,4.18213Z"/>
        <polygon class="cls-1" points="184.541 33.164 182.821 39.545 189.204 38.194 184.541 33.164"/>
        <path class="cls-1" d="M218.23059,1.01807A56.59061,56.59061,0,0,0,211.922.20343l3.48272,11.1944Z"/>
        <path class="cls-1" d="M215.40472,11.39783,211.922.20343C210.26361.077,208.55945,0,206.78418,0c-.63336,0-1.25018.01788-1.869.03369l-.743,4.47962,10.1275,10.94311Z"/>
        <path class="cls-1" d="M206.78418,25.2002a8.75907,8.75907,0,0,1,4.56549,1.092l2.95007-10.83576L204.17224,4.51331l-3.94275,23.77258a6.32711,6.32711,0,0,1,.86719-1.07007A7.84114,7.84114,0,0,1,206.78418,25.2002Z"/>
        <polygon class="cls-1" points="215.405 11.398 214.3 15.456 217.866 19.31 215.405 11.398"/>
        <path class="cls-1" d="M238.68066,12.23975Q231.33538,3.5111,218.23059,1.01807l-2.82587,10.37976,2.46161,7.91241,9.91938,10.71826,10.06848-2.13092,3.7594-11.55859A33.91331,33.91331,0,0,0,238.68066,12.23975Z"/>
        <path class="cls-1" d="M241.61359,16.339l-3.7594,11.55859,8.13269-1.72119A43.06428,43.06428,0,0,0,241.61359,16.339Z"/>
        <polygon class="cls-1" points="227.786 30.029 217.866 19.31 221.608 31.336 227.786 30.029"/>
        <path class="cls-1" d="M215.03638,32.72675l6.57129-1.39075-3.74134-12.02576-3.56659-3.85382-2.95007,10.83576a6.15248,6.15248,0,0,1,1.19428.92364A11.08306,11.08306,0,0,1,215.03638,32.72675Z"/>
        <path class="cls-1" d="M181.54163,44.29327l-6.23926-3.15722-10.56378,2.23572c-.0951,1.80786-.14679,3.66729-.14679,5.58819q0,20.23728,7.04266,32.09985Z"/>
        <polygon class="cls-1" points="182.821 39.545 175.302 41.136 181.542 44.293 182.821 39.545"/>
        <polygon class="cls-1" points="197.162 46.778 189.204 38.194 182.821 39.545 181.542 44.293 196.333 51.778 197.162 46.778"/>
        <path class="cls-1" d="M189.12354,95.24823l7.20965-43.47009-14.79156-7.48487-9.90717,36.76654a34.38442,34.38442,0,0,0,3.25421,4.61988A31.8758,31.8758,0,0,0,189.12354,95.24823Z"/>
        <path class="cls-1" d="M197.46619,44.94672q.109-5.05564.50335-8.608l-8.7655,1.8551,7.95837,8.58435Z"/>
        <path class="cls-1" d="M197.42383,48.96c0-.64728.004-1.27356.01-1.889l-.27143-.29278-.82922,4.99994,1.12219.56787C197.4364,51.26208,197.42383,50.14435,197.42383,48.96Z"/>
        <path class="cls-1" d="M199.76532,68.84259a17.59727,17.59727,0,0,1-1.5495-5.33868,87.41664,87.41664,0,0,1-.76044-11.1579l-1.12219-.56787-7.20965,43.47009c1.03173.36,2.08587.69592,3.18518.98285Z"/>
        <path class="cls-1" d="M197.46619,44.94672l-.30378,1.83148.27143.29278C197.441,46.34375,197.45135,45.63354,197.46619,44.94672Z"/>
        <polygon class="cls-1" points="227.786 30.029 234.723 37.525 237.854 27.898 227.786 30.029"/>
        <path class="cls-1" d="M237.85419,27.89758l-3.13111,9.627,7.8714,8.50531,4.88782-13.8274a59.06716,59.06716,0,0,0-1.49542-6.02612Z"/>
        <path class="cls-1" d="M221.60767,31.336l-6.57129,1.39075c.11609.53527.22448,1.09051.31616,1.68927a102.50561,102.50561,0,0,1,.792,14.54394,118.88355,118.88355,0,0,1-.54077,12.56952l9.71332,4.91516,3.6867-11.33539Z"/>
        <polygon class="cls-1" points="225.317 66.445 233.852 70.763 233.863 70.73 229.004 55.109 225.317 66.445"/>
        <path class="cls-1" d="M215.60376,61.52948c-.0766.69617-.15839,1.36481-.25122,1.97443q-.19785,1.29171-.47144,2.38659l7.85907,8.47718,2.57691-7.923Z"/>
        <polygon class="cls-1" points="222.74 74.368 225.954 77.834 232.963 73.277 233.852 70.763 225.317 66.445 222.74 74.368"/>
        <polygon class="cls-1" points="229.004 55.109 233.863 70.73 242.594 46.03 234.723 37.525 229.004 55.109"/>
        <polygon class="cls-1" points="227.786 30.029 221.608 31.336 229.004 55.109 234.723 37.525 227.786 30.029"/>
        <polygon class="cls-1" points="229.862 82.05 232.963 73.277 225.954 77.834 229.862 82.05"/>
        <polygon class="cls-1" points="222.74 74.368 220.448 81.414 225.954 77.834 222.74 74.368"/>
        <path class="cls-1" d="M214.8811,65.8905a10.24782,10.24782,0,0,1-2.33715,4.8136,9.13063,9.13063,0,0,1-11.44727,0,7.02291,7.02291,0,0,1-1.33136-1.86151l-7.4566,27.38849c1.29766.33874,2.65814.6095,4.0498.8465l24.08978-15.6634,2.29187-7.0465Z"/>
        <path class="cls-1" d="M196.35852,97.07758a61.99451,61.99451,0,0,0,10.42566.84234,64.42827,64.42827,0,0,0,8.47162-.54065l5.1925-15.96509Z"/>
        <path class="cls-1" d="M220.4483,81.41418l-5.1925,15.96509a45.55188,45.55188,0,0,0,10.04584-2.42877l4.5603-12.90088-3.9079-4.21527Z"/>
        <polygon class="cls-1" points="234.371 72.362 235.526 71.611 233.878 70.777 234.371 72.362"/>
        <path class="cls-1" d="M233.86346,70.72955l.01471.04724,1.64789.83387,12.34619-8.02759a85.59617,85.59617,0,0,0,1.028-10.7395l-6.30579-6.81366Z"/>
        <polygon class="cls-1" points="233.852 70.763 233.878 70.777 233.863 70.73 233.852 70.763"/>
        <polygon class="cls-1" points="233.852 70.763 232.963 73.277 234.371 72.362 233.878 70.777 233.852 70.763"/>
        <path class="cls-1" d="M232.96289,73.27722l-3.10095,8.7724,6.04327,6.51862a30.327,30.327,0,0,0,2.6521-2.75135l-4.18616-13.45532Z"/>
        <path class="cls-1" d="M244.41089,76.10663a55.67136,55.67136,0,0,0,3.46136-12.52356l-12.34619,8.02759Z"/>
        <path class="cls-1" d="M234.37115,72.36157l4.18616,13.45532c.04-.04693.08362-.09.12335-.1372a36.79348,36.79348,0,0,0,5.73023-9.57306l-8.88483-4.496Z"/>
        <path class="cls-1" d="M242.59448,46.02991l6.30579,6.81366c.04523-1.271.07629-2.55884.07629-3.88361a86.811,86.811,0,0,0-1.49426-16.75745Z"/>
        <path class="cls-1" d="M225.30164,94.9505a32.50739,32.50739,0,0,0,10.60357-6.38226l-6.04327-6.51862Z"/>
        <polygon class="cls-1" points="284.57 83.488 283.698 80.041 276.05 82.18 280.512 87.001 284.57 83.488"/>
        <polygon class="cls-1" points="284.57 83.488 280.512 87.001 287.317 94.354 284.57 83.488"/>
        <path class="cls-1" d="M275.648,91.21368l4.8642-4.21228-4.46173-4.8211-7.632,2.13482c.35107.46491.70752.92353,1.07867,1.36457A30.23635,30.23635,0,0,0,275.648,91.21368Z"/>
        <path class="cls-1" d="M287.31665,94.35388l-6.8045-7.35248-4.8642,4.21228a36.4319,36.4319,0,0,0,12.1991,5.23822Z"/>
        <path class="cls-1" d="M289.5863,96.80634l-2.26965-2.45246.5304,2.098C288.41156,96.58655,289.00488,96.69,289.5863,96.80634Z"/>
        <polygon class="cls-1" points="289.097 79.567 288.97 78.566 283.698 80.041 284.57 83.488 289.097 79.567"/>
        <path class="cls-1" d="M289.5863,96.80634c.56824.1137,1.15216.21044,1.73658.30664l-2.226-17.54578-4.52734,3.92053,2.74707,10.86615Z"/>
        <polygon class="cls-1" points="290.864 78.037 288.97 78.566 289.097 79.567 290.864 78.037"/>
        <path class="cls-1" d="M290.86444,78.03656l-1.76752,1.53064,2.226,17.54578a60.52022,60.52022,0,0,0,7.86755.75622l5.33307-5.43432,2.71106-18.97736Z"/>
        <polygon class="cls-1" points="326.105 68.179 307.235 73.458 304.523 92.435 326.183 70.364 326.105 68.179"/>
        <polygon class="cls-1" points="326.183 70.364 329.168 67.322 326.105 68.179 326.183 70.364"/>
        <path class="cls-1" d="M299.19043,97.8692c.72778.02368,1.45245.05072,2.20215.05072.80481,0,1.57519-.03723,2.35632-.0628l.7746-5.42224Z"/>
        <path class="cls-1" d="M326.18335,70.36371,304.5235,92.43488l-.7746,5.42224q14.16321-.4639,23.18439-6.495Z"/>
        <path class="cls-1" d="M329.16821,67.3222l-2.98486,3.04151.74994,20.99841a30.39473,30.39473,0,0,0,6.35577-5.68243q6.94189-8.25275,9.19733-22.08283Z"/>
        <polygon class="cls-1" points="281.507 18.659 306.068 25.744 314.868 20.022 316.109 11.336 281.507 18.659"/>
        <polygon class="cls-1" points="324.015 9.662 316.109 11.336 314.868 20.022 324.169 13.974 324.015 9.662"/>
        <path class="cls-1" d="M324.01544,9.66241l.154,4.31177,6.63037-4.31109c-.42248-.39368-.83868-.79425-1.28228-1.16517Z"/>
        <polygon class="cls-1" points="306.068 25.744 313.735 27.955 314.868 20.022 306.068 25.744"/>
        <polygon class="cls-1" points="324.169 13.974 314.868 20.022 313.735 27.955 324.783 31.142 324.169 13.974"/>
        <path class="cls-1" d="M333.28906,12.23975a29.52725,29.52725,0,0,0-2.48926-2.57666l-6.63037,4.31109.61316,17.168,15.17792,4.37824,2.36029-2.044C340.76678,24.66571,337.77057,17.5694,333.28906,12.23975Z"/>
        <path class="cls-1" d="M342.3208,33.47638l-2.36029,2.044,2.82227.81408C342.65027,35.35626,342.48639,34.41528,342.3208,33.47638Z"/>
        <path class="cls-1" d="M329.16821,67.3222l13.31818-3.72534a86.02411,86.02411,0,0,0,1.03223-10.89752Z"/>
        <polygon class="cls-1" points="284.082 40.039 281.373 18.687 268.857 21.336 275.067 45.901 284.082 40.039"/>
        <polygon class="cls-1" points="288.97 78.566 284.082 40.039 275.067 45.901 283.698 80.041 288.97 78.566"/>
        <path class="cls-1" d="M290.86444,78.03656l6.90924-5.98328a6.66253,6.66253,0,0,1-2.0686-1.34918q-2.09034-2.01416-2.88086-7.20019a102.18917,102.18917,0,0,1-.792-14.54395,102.21253,102.21253,0,0,1,.792-14.54394c.00366-.02387.00836-.04511.012-.06885l-8.75409,5.69195L288.97,78.56647Z"/>
        <polygon class="cls-1" points="324.783 31.142 325.39 48.138 339.961 35.52 324.783 31.142"/>
        <path class="cls-1" d="M306.06818,25.74377l-.51014.33161a6.21254,6.21254,0,0,1,1.5943,1.14044q2.01563,2.01855,2.8086,7.2002a102.00155,102.00155,0,0,1,.79132,14.4176l2.9826-20.8783Z"/>
        <path class="cls-1" d="M313.73486,27.95532l-2.9826,20.8783c0,.04315.00067.083.00067.12634a121.18932,121.18932,0,0,1-.51135,12.29639l15.148-13.11786-.607-16.99634Z"/>
        <path class="cls-1" d="M307.15234,70.7041a7.79428,7.79428,0,0,1-5.75976,2.0166,9.23629,9.23629,0,0,1-3.6189-.66742l-6.90924,5.98328,16.37012-4.579.49078-3.43536A5.95161,5.95161,0,0,1,307.15234,70.7041Z"/>
        <path class="cls-1" d="M325.38959,48.13849l-15.148,13.11786c-.08411.79919-.17572,1.55884-.28064,2.24756a14.96539,14.96539,0,0,1-2.2356,6.51825l-.49078,3.43536L326.10535,68.179Z"/>
        <path class="cls-1" d="M342.78278,36.33447l-2.82227-.81408-14.57092,12.6181.71576,20.04047,3.06286-.85676,14.35041-14.62286c.04235-1.22241.06634-2.46661.06634-3.73938A94.10255,94.10255,0,0,0,342.78278,36.33447Z"/>
        <path class="cls-1" d="M305.558,26.07538l.51014-.33161-24.561-7.0849-.13385.02832,2.7088,21.35193,8.75409-5.69195q.79451-5.1265,2.86884-7.13135a7.84114,7.84114,0,0,1,5.6875-2.01562A9.11567,9.11567,0,0,1,305.558,26.07538Z"/>
        <path class="cls-1" d="M275.06726,45.9007l-6.21014-24.56458-5.3592,1.13422Q259.20877,33.17157,259.2002,48.96c0,2.46582.10113,4.81146.25952,7.08887Z"/>
        <path class="cls-1" d="M276.05042,82.1803l7.64782-2.13922-8.631-34.14038L259.45972,56.04883a79.06672,79.06672,0,0,0,1.1878,9.4881Z"/>
        <path class="cls-1" d="M276.05042,82.1803l-15.4029-16.64337q2.20386,11.3886,7.77088,18.77819Z"/>
        <path class="cls-1" d="M267.30695,15.20422a39.52949,39.52949,0,0,0-3.809,7.26612l5.3592-1.13422Z"/>
        <polygon class="cls-1" points="281.507 18.659 281.365 18.618 281.373 18.687 281.507 18.659"/>
        <path class="cls-1" d="M281.37335,18.68719l-.00885-.06945L267.67938,14.67c-.12311.17933-.25128.3526-.37243.53418l1.55017,6.1319Z"/>
        <path class="cls-1" d="M279.5625,4.41339a30.881,30.881,0,0,0-10.06543,7.82636c-.64368.76519-1.23926,1.58758-1.81769,2.43029l13.68512,3.9477Z"/>
        <path class="cls-1" d="M301.39258,0Q288.4398,0,279.5625,4.41339l1.802,14.20435.1427.04113,34.60187-7.32318,1.31171-9.18206A55.15179,55.15179,0,0,0,301.39258,0Z"/>
        <path class="cls-1" d="M323.83917,4.7262a37.20282,37.20282,0,0,0-6.41839-2.57257l-1.31171,9.18206,7.90637-1.67328Z"/>
        <path class="cls-1" d="M324.01544,9.66241l5.50208-1.16449a31.593,31.593,0,0,0-5.67835-3.77172Z"/>
      </g>
    </g>
  </g>
</svg>
