<svg xmlns="http://www.w3.org/2000/svg" width="810.13672" height="97.91943" viewBox="0 0 810.13672 97.91943">
  <defs>
    <style>
      .cls-1 {
        fill: #231f20;
      }
    </style>
  </defs>
  <g id="Layer_2" data-name="Layer 2">
    <g id="Content">
      <g id="code-star">
        <path class="cls-1" d="M28.84021,3.04108a45.11363,45.11363,0,0,0-6.30408,2.71869,41.28992,41.28992,0,0,0-5.21771,3.28088L23.0097,20.231Z"/>
        <path class="cls-1" d="M23.0097,20.231,17.31842,9.04065A39.582,39.582,0,0,0,5.832,22.46387,48.93591,48.93591,0,0,0,.82355,37.92639l16.2453-.18017Z"/>
        <path class="cls-1" d="M.82355,37.92639A70.47905,70.47905,0,0,0,0,48.96Q0,63.21,4.91644,73.575L17.06885,37.74622Z"/>
        <path class="cls-1" d="M91.584,28.7998q-2.01855-10.22241-8.27929-16.56c-.49616-.50165-1.00751-.98487-1.53-1.45472l-19.884,24.33423c.16735.66956.32037,1.37934.46063,2.12458l7.80328-.08655Z"/>
        <path class="cls-1" d="M70.15454,37.15729l-7.80328.08655c.16437.87329.31067,1.797.43292,2.7879Z"/>
        <path class="cls-1" d="M48.38379,0A59.19817,59.19817,0,0,0,28.84021,3.04108L23.0097,20.231,31.83447,37.5824l3.54767-.03937c.16522-.712.34284-1.40222.54608-2.04694a14.89656,14.89656,0,0,1,5.04-7.77588,13.47536,13.47536,0,0,1,8.27979-2.52c.51562,0,1.01477.025,1.50512.06353L53.00171.15509C51.485.05688,49.94818,0,48.38379,0Z"/>
        <path class="cls-1" d="M67.96777,2.95215A60.95209,60.95209,0,0,0,53.00171.15509L50.75317,25.26373A13.43133,13.43133,0,0,1,58.10449,27.936c1.65863,1.28753,2.91486,3.69787,3.78614,7.18322L81.77466,10.785A37.90268,37.90268,0,0,0,67.96777,2.95215Z"/>
        <path class="cls-1" d="M35.38214,37.543l-3.54767.03937,2.704,5.31671A40.35117,40.35117,0,0,1,35.38214,37.543Z"/>
        <polygon class="cls-1" points="23.01 20.231 17.069 37.746 31.834 37.582 23.01 20.231"/>
        <path class="cls-1" d="M34.27246,48.96c0-2.17877.09125-4.19433.266-6.06085l-2.704-5.31671-14.76562.16382L4.91644,73.575c.29828.63233.59,1.26984.91559,1.88062A39.518,39.518,0,0,0,17.7265,89.16779L37.00879,65.57a19.12039,19.12039,0,0,1-1.22461-3.2179A49.96833,49.96833,0,0,1,34.27246,48.96Z"/>
        <path class="cls-1" d="M62.64063,59.75977q-.86427,6.76977-4.17676,9.86377a11.941,11.941,0,0,1-8.4961,3.09667c-.09106,0-.17608-.00653-.26629-.00744L59.86584,92.69812,88.767,66.48187Z"/>
        <path class="cls-1" d="M59.86584,92.69812l2.00452,3.94128a54.87716,54.87716,0,0,0,6.3855-1.67211,35.52381,35.52381,0,0,0,15.19238-9.71973q6.26367-6.76611,8.85645-17.85547L88.767,66.48187Z"/>
        <path class="cls-1" d="M40.75244,70.19971A12.27531,12.27531,0,0,1,37.00879,65.57L17.7265,89.16779a41.377,41.377,0,0,0,4.80963,2.99188,52.12484,52.12484,0,0,0,21.72168,5.63592l2.2699-25.34765A13.17427,13.17427,0,0,1,40.75244,70.19971Z"/>
        <path class="cls-1" d="M61.87036,96.6394l-2.00452-3.94128-2.16,1.95941,2.16-1.95941L49.70148,72.71277a21.4599,21.4599,0,0,1-3.17377-.26483l-2.2699,25.34765c1.35059.076,2.72119.12384,4.126.12384A68.2401,68.2401,0,0,0,61.87036,96.6394Z"/>
        <path class="cls-1" d="M153.8623,70.19971a10.28452,10.28452,0,0,1-1.40887.95233L131.18005,92.42542l.99317,4.09466a63.91813,63.91813,0,0,0,13.6969,1.39935,60.60079,60.60079,0,0,0,18.2995-2.60351l-8.447-27.09119A10.95386,10.95386,0,0,1,153.8623,70.19971Z"/>
        <path class="cls-1" d="M132.17322,96.52008l-.99317-4.09466-3.04376,3.04376Q130.10266,96.06776,132.17322,96.52008Z"/>
        <path class="cls-1" d="M140.537,19.52106,134.73181.90265a48.5556,48.5556,0,0,0-14.70935,4.85712,40.18386,40.18386,0,0,0-8.41968,5.95221l6.04407,24.91845,4.07849-.04522Z"/>
        <polygon class="cls-1" points="121.725 36.585 117.647 36.63 118.373 39.626 121.725 36.585"/>
        <path class="cls-1" d="M111.60278,11.712a40.09746,40.09746,0,0,0-8.28442,10.75189,48.41293,48.41293,0,0,0-4.8042,14.37884l19.13269-.21228Z"/>
        <path class="cls-1" d="M98.51416,36.84271A69.0824,69.0824,0,0,0,97.48633,48.96a72.17433,72.17433,0,0,0,.5719,9.09375l20.31512-18.42792-.7265-2.99536Z"/>
        <path class="cls-1" d="M133.27051,35.42383a15.013,15.013,0,0,1,4.6084-7.70362,10.89011,10.89011,0,0,1,4.54193-2.15722L140.537,19.52106,121.72534,36.58521l11.27228-.12507C133.08533,36.10785,133.17346,35.75653,133.27051,35.42383Z"/>
        <path class="cls-1" d="M137.87891,70.19971a15.03309,15.03309,0,0,1-4.6084-7.77637A49.80736,49.80736,0,0,1,131.75879,48.96a52.86154,52.86154,0,0,1,1.23883-12.49982l-11.27228.12507-3.352,3.04058,12.8067,52.79963L152.45343,71.152a13.08461,13.08461,0,0,1-6.58331,1.56817A12.24542,12.24542,0,0,1,137.87891,70.19971Z"/>
        <path class="cls-1" d="M118.37335,39.62579,98.05823,58.05371a50.08107,50.08107,0,0,0,5.26013,17.40186,39.48634,39.48634,0,0,0,16.7041,16.7041,45.70031,45.70031,0,0,0,8.11383,3.30951l3.04376-3.04376Z"/>
        <path class="cls-1" d="M134.73181.90265,140.537,19.52106,160.3465,1.55182A64.16723,64.16723,0,0,0,145.87012,0,66.52045,66.52045,0,0,0,134.73181.90265Z"/>
        <path class="cls-1" d="M160.3465,1.55182,140.537,19.52106l1.88385,6.04193a15.591,15.591,0,0,1,3.44928-.36279,12.26794,12.26794,0,0,1,7.99218,2.52,14.64954,14.64954,0,0,1,4.53614,7.70362c.067.24158.12622.50055.1886.75244l11.35-.12592L165.87354,3.17261A50.19835,50.19835,0,0,0,160.3465,1.55182Z"/>
        <path class="cls-1" d="M191.94507,31.6604a46.10979,46.10979,0,0,0-3.59448-9.19653A39.19122,39.19122,0,0,0,171.791,5.75977a43.68984,43.68984,0,0,0-5.91748-2.58716l4.06353,32.87774,17.81568-.19763Z"/>
        <path class="cls-1" d="M158.587,36.17627A54.41892,54.41892,0,0,1,159.83887,48.96a52.21068,52.21068,0,0,1-1.44043,13.46338,18.4763,18.4763,0,0,1-2.00879,4.79248l15.48541-15.48541-1.938-15.68006Z"/>
        <polygon class="cls-1" points="169.937 36.05 171.875 51.73 187.753 35.853 169.937 36.05"/>
        <path class="cls-1" d="M156.38965,67.21582c-.21417.34985-.43219.6933-.667,1.00891l8.447,27.09119a44.77861,44.77861,0,0,0,7.6214-3.15625,40.95938,40.95938,0,0,0,4.71612-2.95178l-4.63208-37.47748Z"/>
        <path class="cls-1" d="M188.35059,75.45557q5.75829-10.94092,5.75976-26.49561a68.75,68.75,0,0,0-1.19665-13.16449l-5.161.05725L171.87506,51.73041l4.63208,37.47748A39.23176,39.23176,0,0,0,188.35059,75.45557Z"/>
        <path class="cls-1" d="M187.75275,35.85272l5.161-.05725q-.41411-2.12366-.96863-4.13507Z"/>
        <polygon class="cls-1" points="239.037 43.207 239.037 41.824 238.734 42.192 239.037 43.207"/>
        <path class="cls-1" d="M261.40533,35.03564A52.14012,52.14012,0,0,1,262.94141,48.96q0,12.241-3.09668,17.92822c-2.01648,3.70313-6.03632,5.583-12.03125,5.67066l7.1369,23.86914a63.12838,63.12838,0,0,0,8.08594-.80725l25.62231-60.88739Z"/>
        <path class="cls-1" d="M285.83691,13.82422A35.84676,35.84676,0,0,0,270.1944,4.01953L252.219,25.82965c3.59711.77557,6.15235,2.49774,7.62574,5.20209a19.72423,19.72423,0,0,1,1.5606,4.0039l27.2533-.3023,4.19189-9.96137A38.65052,38.65052,0,0,0,285.83691,13.82422Z"/>
        <path class="cls-1" d="M292.85052,24.772l-4.19189,9.96137,7.20978-.08A49.985,49.985,0,0,0,292.85052,24.772Z"/>
        <path class="cls-1" d="M288.65863,34.73334,263.03632,95.62073q14.38349-2.4018,22.80059-11.5968,11.37451-12.45411,11.376-35.064a72.04739,72.04739,0,0,0-1.34448-14.30664Z"/>
        <path class="cls-1" d="M252.1416,1.43994H236.471l-4.4972,18.14386L236.676,35.31l2.36115-.02619V25.34375h8.35156a22.82279,22.82279,0,0,1,4.83032.4859L270.1944,4.01953A58.24575,58.24575,0,0,0,252.1416,1.43994Z"/>
        <polygon class="cls-1" points="226.549 1.44 231.974 19.584 236.471 1.44 226.549 1.44"/>
        <polygon class="cls-1" points="238.734 42.192 239.037 41.824 239.037 35.284 236.676 35.31 238.734 42.192"/>
        <polygon class="cls-1" points="222.166 1.44 212.416 1.44 214.691 8.914 222.166 1.44"/>
        <polygon class="cls-1" points="212.416 1.44 205.485 1.44 205.485 18.12 214.691 8.914 212.416 1.44"/>
        <polygon class="cls-1" points="226.549 1.44 222.166 1.44 214.691 8.914 222.771 35.464 228.052 35.406 231.974 19.584 226.549 1.44"/>
        <polygon class="cls-1" points="231.974 19.584 228.052 35.406 236.676 35.31 231.974 19.584"/>
        <polygon class="cls-1" points="214.691 8.914 205.485 18.12 205.485 35.656 222.771 35.464 214.691 8.914"/>
        <polygon class="cls-1" points="222.771 35.464 205.485 35.656 205.485 82.533 221.053 63.645 225.674 45.001 222.771 35.464"/>
        <polygon class="cls-1" points="225.674 45.001 221.053 63.645 228.572 54.522 225.674 45.001"/>
        <polygon class="cls-1" points="222.771 35.464 225.674 45.001 228.052 35.406 222.771 35.464"/>
        <polygon class="cls-1" points="228.052 35.406 225.674 45.001 228.572 54.522 238.734 42.192 236.676 35.31 228.052 35.406"/>
        <polygon class="cls-1" points="205.485 82.533 205.485 96.48 212.914 96.48 221.053 63.645 205.485 82.533"/>
        <polygon class="cls-1" points="228.572 54.522 221.053 63.645 212.914 96.48 241.341 96.48 228.572 54.522"/>
        <path class="cls-1" d="M247.81348,72.55884c-.14545.00213-.277.01684-.42481.01684h-8.35156V43.20679l-.30347-1.0149-10.16205,12.33L241.34149,96.48H252.1416q1.42722,0,2.80878-.052Z"/>
        <polygon class="cls-1" points="378.715 37.872 370.83 37.872 376.897 52.958 378.715 49.776 378.715 37.872"/>
        <polygon class="cls-1" points="378.715 49.776 376.897 52.958 378.715 57.478 378.715 49.776"/>
        <polygon class="cls-1" points="373.913 58.179 375.025 60.624 378.715 60.624 378.715 57.478 376.897 52.958 373.913 58.179"/>
        <polygon class="cls-1" points="370.83 37.872 364.676 37.872 373.913 58.179 376.897 52.958 370.83 37.872"/>
        <polygon class="cls-1" points="376.308 1.44 356.178 1.44 363.918 20.687 376.308 1.44"/>
        <polygon class="cls-1" points="356.178 1.44 348.104 1.44 359.305 26.064 360.457 26.064 363.918 20.687 356.178 1.44"/>
        <polygon class="cls-1" points="387.499 3.929 387.499 1.44 376.308 1.44 363.918 20.687 365.64 24.967 387.499 3.929"/>
        <polygon class="cls-1" points="387.499 26.064 387.499 3.929 365.64 24.967 366.081 26.064 387.499 26.064"/>
        <polygon class="cls-1" points="365.64 24.967 363.918 20.687 360.457 26.064 364.5 26.064 365.64 24.967"/>
        <polygon class="cls-1" points="365.64 24.967 364.5 26.064 366.081 26.064 365.64 24.967"/>
        <polygon class="cls-1" points="308.587 9.596 308.587 34.512 314.177 34.45 308.587 9.596"/>
        <polygon class="cls-1" points="308.587 34.512 308.587 79.877 321.581 67.372 314.177 34.45 308.587 34.512"/>
        <polygon class="cls-1" points="308.587 79.877 308.587 96.48 315.129 96.48 324.762 81.516 321.581 67.372 308.587 79.877"/>
        <polygon class="cls-1" points="342.139 26.064 359.305 26.064 348.104 1.44 325.156 1.44 328.92 34.287 342.139 34.14 342.139 26.064"/>
        <polygon class="cls-1" points="308.587 1.44 308.587 9.596 314.177 34.45 328.92 34.287 325.156 1.44 308.587 1.44"/>
        <polygon class="cls-1" points="314.177 34.45 321.581 67.372 331.605 57.723 328.92 34.287 314.177 34.45"/>
        <polygon class="cls-1" points="342.139 37.872 342.139 34.14 328.92 34.287 331.605 57.723 352.231 37.872 342.139 37.872"/>
        <polygon class="cls-1" points="321.581 67.372 324.762 81.516 332.885 68.896 331.605 57.723 321.581 67.372"/>
        <polygon class="cls-1" points="352.231 37.872 331.605 57.723 332.885 68.896 352.856 37.872 352.231 37.872"/>
        <polygon class="cls-1" points="315.129 96.48 328.127 96.48 324.762 81.516 315.129 96.48"/>
        <polygon class="cls-1" points="375.025 60.624 373.913 58.179 372.516 60.624 375.025 60.624"/>
        <polygon class="cls-1" points="324.762 81.516 328.127 96.48 336.046 96.48 332.885 68.896 324.762 81.516"/>
        <polygon class="cls-1" points="372.516 60.624 373.913 58.179 364.676 37.872 352.856 37.872 332.885 68.896 336.046 96.48 352.027 96.48 366.098 71.856 342.139 71.856 342.139 60.624 372.516 60.624"/>
        <polygon class="cls-1" points="366.098 71.856 352.027 96.48 389.227 96.48 389.227 91.844 380.135 71.856 366.098 71.856"/>
        <polygon class="cls-1" points="389.227 83.616 389.227 71.856 384.497 71.856 389.227 83.616"/>
        <polygon class="cls-1" points="380.135 71.856 389.227 91.844 389.227 83.616 384.497 71.856 380.135 71.856"/>
        <path class="cls-1" d="M447.11328,56.16016a86.788,86.788,0,0,0,10.35285,3.54919l3.0335-3.02185-17.5263-23.66608-11.39838.12647q.10455,9.172,4.30591,14.588A27.18329,27.18329,0,0,0,447.11328,56.16016Z"/>
        <path class="cls-1" d="M433.89783,20.7666c-.276.64551-.51917,1.30628-.74677,1.97431l1.8169-.5293Z"/>
        <path class="cls-1" d="M433.15106,22.74091a30.623,30.623,0,0,0-1.58954,9.94708c0,.15741.01166.30414.01343.4599l11.39838-.12647L434.968,22.21161Z"/>
        <polygon class="cls-1" points="467.919 49.297 464.032 32.788 442.973 33.021 460.5 56.688 467.919 49.297"/>
        <path class="cls-1" d="M456.88916,2.451a47.01471,47.01471,0,0,0-4.80811,1.653q-10.00928,4.10376-15.26367,11.44776a27.45139,27.45139,0,0,0-2.91955,5.21484l1.07013,1.445,24.8681-7.24506Z"/>
        <polygon class="cls-1" points="434.968 22.212 442.973 33.021 464.032 32.788 459.836 14.967 434.968 22.212"/>
        <polygon class="cls-1" points="467.919 49.297 460.5 56.688 463.884 61.258 469.528 62.5 470.563 60.527 467.919 49.297"/>
        <polygon class="cls-1" points="470.563 60.527 469.528 62.5 471.11 62.848 470.563 60.527"/>
        <path class="cls-1" d="M463.8844,61.25806l-3.38477-4.57056-3.0335,3.02185c1.3797.38025,2.77368.73792,4.1911,1.05872Z"/>
        <path class="cls-1" d="M440.48926,61.48779,427.24121,83.52c1.14154.937,2.35828,1.826,3.63367,2.67786l19.09656-19.02277A47.04378,47.04378,0,0,1,440.48926,61.48779Z"/>
        <path class="cls-1" d="M472.73657,73.21124l1.19281,1.61066-.36822-1.56384C473.29083,73.25079,473.00983,73.22388,472.73657,73.21124Z"/>
        <path class="cls-1" d="M462.80957,71.71143a72.00177,72.00177,0,0,1-12.24023-4.248c-.20691-.09326-.39423-.19385-.5979-.28827L430.87488,86.19788a56.9542,56.9542,0,0,0,9.75793,5.1698,78.91123,78.91123,0,0,0,11.74427,3.7998l12.11517-23.07654C463.934,71.96924,463.37921,71.85413,462.80957,71.71143Z"/>
        <path class="cls-1" d="M472.73657,73.21124a49.44033,49.44033,0,0,1-8.24432-1.1203L452.37708,95.16748c1.66918.40521,3.3637.77936,5.10437,1.09668A100.97355,100.97355,0,0,0,475.625,97.91943c1.263,0,2.49786-.0401,3.71954-.099L473.92938,74.8219Z"/>
        <path class="cls-1" d="M503.13647,14.21527l4.10364,18.0932,1.12451-.01245,11.75647-18.75989a55.26345,55.26345,0,0,0-9.89965-6.37842Z"/>
        <polygon class="cls-1" points="507.537 33.617 508.365 32.296 507.24 32.308 507.537 33.617"/>
        <path class="cls-1" d="M490.48639,26.81653q.96726.3207,1.915.68738a65.53308,65.53308,0,0,1,9.89929,4.85937l4.93945-.05481-4.10364-18.0932Z"/>
        <path class="cls-1" d="M502.30066,32.36328c1.44818.86591,2.87793,1.78516,4.2843,2.77246l.95191-1.51892-.29676-1.30835Z"/>
        <path class="cls-1" d="M479.34454,97.82043a64.75686,64.75686,0,0,0,10.60584-1.365l-16.021-21.63348Z"/>
        <path class="cls-1" d="M510.68945,46.36816c-.10009-.0874-.21624-.16766-.31823-.25421l6.43042,28.35218a37.09309,37.09309,0,0,0,1.30383-10.09845Q518.10547,52.8496,510.68945,46.36816Z"/>
        <path class="cls-1" d="M488.72949,36.57617l-.81134-.18725L502.1,92.13135a31.84637,31.84637,0,0,0,10.38928-8.82715,26.29944,26.29944,0,0,0,4.31238-8.83807L510.37122,46.114Q502.962,39.82748,488.72949,36.57617Z"/>
        <polygon class="cls-1" points="482.201 35.07 467.919 49.297 470.563 60.527 483.742 35.425 482.201 35.07"/>
        <path class="cls-1" d="M483.74182,35.42505,470.56348,60.52673l.54644,2.32087,4.9477,1.08844a22.61454,22.61454,0,0,1,5.97558,2.01562,3.31544,3.31544,0,0,1,1.65625,3.02441,3.34958,3.34958,0,0,1-.792,2.23145,5.65473,5.65473,0,0,1-2.80859,1.51269,20.70455,20.70455,0,0,1-5.47168.5752c-.34522,0-.70569-.028-1.056-.03735l.36822,1.56384,16.021,21.63348a52.43882,52.43882,0,0,0,7.3465-2.13556A38.58091,38.58091,0,0,0,502.1,92.13135L487.91815,36.38892Z"/>
        <path class="cls-1" d="M500.66473,3.317l2.47174,10.89825,7.085-7.05756a60.51747,60.51747,0,0,0-9.324-3.77392C500.82111,3.36005,500.74127,3.34052,500.66473,3.317Z"/>
        <path class="cls-1" d="M500.60718,3.3006l-12.0484,22.94928c.64666.1792,1.29406.35657,1.92761.56665l12.65008-12.60126L500.66473,3.317C500.64581,3.31122,500.6261,3.3064,500.60718,3.3006Z"/>
        <path class="cls-1" d="M480.90619,8.828l4.22467,16.60541c1.164.2218,2.30218.50452,3.42792.81647L500.60718,3.3006c-.12116-.03705-.24707-.06836-.36878-.1048Z"/>
        <path class="cls-1" d="M478.66937.03619,480.90619,8.828,500.2384,3.1958A81.28233,81.28233,0,0,0,478.66937.03619Z"/>
        <path class="cls-1" d="M478.66937.03619C477.89874.01941,477.13025,0,476.3457,0a70.33266,70.33266,0,0,0-19.45654,2.451l2.9469,12.51556L480.90619,8.828Z"/>
        <path class="cls-1" d="M459.83606,14.96655l4.19611,17.82123,8.32659-.09235c-1.28131-.353-2.43493-.69274-3.42907-1.01525q-2.66748-.86427-2.66406-2.59229a3.28629,3.28629,0,0,1,.93554-2.30371,6.50345,6.50345,0,0,1,3.168-1.584,24.86175,24.86175,0,0,1,5.97656-.57618,46.84256,46.84256,0,0,1,8.78516.80939L480.90619,8.828Z"/>
        <path class="cls-1" d="M482.20142,35.06952,475.625,33.55176c-1.18219-.2948-2.26056-.57935-3.26624-.85633l-8.32659.09235,3.88708,16.50879Z"/>
        <polygon class="cls-1" points="613.493 26.064 616.745 26.064 616.745 1.44 602.549 1.44 613.493 26.064"/>
        <polygon class="cls-1" points="574.212 47.59 582.323 31.476 569.924 31.613 574.212 47.59"/>
        <polygon class="cls-1" points="582.323 31.476 574.212 47.59 587.081 95.539 587.081 31.423 582.323 31.476"/>
        <polygon class="cls-1" points="561.827 1.44 569.924 31.613 582.323 31.476 597.442 1.44 561.827 1.44"/>
        <polygon class="cls-1" points="602.549 1.44 597.442 1.44 582.323 31.476 587.081 31.423 587.081 26.064 613.493 26.064 602.549 1.44"/>
        <polygon class="cls-1" points="548.02 6.995 550.163 1.44 546.812 1.44 548.02 6.995"/>
        <polygon class="cls-1" points="550.163 1.44 548.02 6.995 552.165 26.064 553.529 26.064 553.529 31.795 569.924 31.613 561.827 1.44 550.163 1.44"/>
        <polygon class="cls-1" points="523.721 1.44 523.721 26.064 540.662 26.064 548.02 6.995 546.812 1.44 523.721 1.44"/>
        <polygon class="cls-1" points="540.662 26.064 552.165 26.064 548.02 6.995 540.662 26.064"/>
        <polygon class="cls-1" points="553.529 88.68 562.083 71.686 553.529 32.338 553.529 88.68"/>
        <polygon class="cls-1" points="553.529 31.795 553.529 32.338 562.083 71.686 574.212 47.59 569.924 31.613 553.529 31.795"/>
        <polygon class="cls-1" points="553.529 88.68 553.529 96.48 567.473 96.48 562.083 71.686 553.529 88.68"/>
        <polygon class="cls-1" points="574.212 47.59 562.083 71.686 567.473 96.48 587.081 96.48 587.081 95.539 574.212 47.59"/>
        <polygon class="cls-1" points="644.814 78.335 649.938 57.456 635.407 57.456 640.471 78.335 644.814 78.335"/>
        <polygon class="cls-1" points="640.471 78.335 635.407 57.456 631.002 57.456 631.002 65.458 636.725 78.335 640.471 78.335"/>
        <polygon class="cls-1" points="631.002 65.458 631.002 78.335 636.725 78.335 631.002 65.458"/>
        <polygon class="cls-1" points="642.63 87.237 640.471 78.335 636.725 78.335 641.937 90.061 642.63 87.237"/>
        <polygon class="cls-1" points="644.814 78.335 640.471 78.335 642.63 87.237 644.814 78.335"/>
        <polygon class="cls-1" points="641.937 90.061 636.725 78.335 631.002 78.335 631.002 65.458 622.913 47.258 606.953 96.48 640.361 96.48 641.937 90.061"/>
        <polygon class="cls-1" points="667.055 63.959 665.51 57.456 649.938 57.456 644.814 78.335 655.601 78.335 667.055 63.959"/>
        <polygon class="cls-1" points="667.055 63.959 655.601 78.335 670.469 78.335 667.055 63.959"/>
        <polygon class="cls-1" points="628.196 30.967 628.98 30.958 628.646 29.579 628.196 30.967"/>
        <polygon class="cls-1" points="628.98 30.958 628.196 30.967 622.913 47.258 631.002 65.458 631.002 57.456 635.407 57.456 628.98 30.958"/>
        <polygon class="cls-1" points="649.938 57.456 653.754 41.904 656.365 30.654 628.98 30.958 635.407 57.456 649.938 57.456"/>
        <polygon class="cls-1" points="689.343 35.984 687.494 30.309 673.169 30.468 685.89 40.318 689.343 35.984"/>
        <polygon class="cls-1" points="665.51 57.456 672.236 57.456 685.89 40.318 673.169 30.468 659.098 30.624 661.817 41.904 665.51 57.456"/>
        <polygon class="cls-1" points="687.494 30.309 678.09 1.44 637.77 1.44 637.351 2.732 673.169 30.468 687.494 30.309"/>
        <polygon class="cls-1" points="657.497 25.776 657.93 25.776 659.098 30.624 673.169 30.468 637.351 2.732 628.646 29.579 628.98 30.958 656.365 30.654 657.497 25.776"/>
        <polygon class="cls-1" points="689.343 35.984 685.89 40.318 692.396 45.356 689.343 35.984"/>
        <polygon class="cls-1" points="692.396 45.356 685.89 40.318 672.236 57.456 685.29 57.456 685.29 78.335 670.469 78.335 672.775 88.049 699.783 68.034 692.396 45.356"/>
        <polygon class="cls-1" points="672.775 88.049 674.777 96.48 709.05 96.48 699.783 68.034 672.775 88.049"/>
        <polygon class="cls-1" points="672.236 57.456 665.51 57.456 667.055 63.959 672.236 57.456"/>
        <polygon class="cls-1" points="685.29 78.335 685.29 57.456 672.236 57.456 667.055 63.959 670.469 78.335 685.29 78.335"/>
        <polygon class="cls-1" points="756.9 64.944 761.468 73.517 761.052 64.944 756.9 64.944"/>
        <path class="cls-1" d="M766.792,63.21533l-3.31152,1.72852h-2.42835l.41565,8.57281L773.7041,96.48h5.084l15.271-25.20923-7.19171-11.27637Q778.62561,63.21091,766.792,63.21533Z"/>
        <polygon class="cls-1" points="794.059 71.271 778.788 96.48 810.137 96.48 794.059 71.271"/>
        <path class="cls-1" d="M760.48993,53.3479l.56219,11.59595h2.42835l3.31152-1.72852q11.83934,0,20.07538-3.221l-6.39471-10.02661Z"/>
        <polygon class="cls-1" points="751.528 54.864 756.9 64.944 761.052 64.944 760.49 53.348 751.528 54.864"/>
        <path class="cls-1" d="M766.36035,1.43994h-8.38721l1.09852,22.65686L785.58551,4.44812A55.08672,55.08672,0,0,0,766.36035,1.43994Z"/>
        <path class="cls-1" d="M794.87207,9.72021a31.60066,31.60066,0,0,0-9.28656-5.27209L759.07166,24.0968l.06048,1.24695h1.46845q5.32617,0,7.99218,2.01611a5.94272,5.94272,0,0,1,1.68476,2.03058l34.42273-.38183A26.72616,26.72616,0,0,0,794.87207,9.72021Z"/>
        <path class="cls-1" d="M770.27753,29.39044a10.21,10.21,0,0,1,.97931,4.73749q0,4.897-2.66407,6.83984-2.66748,1.94458-7.99218,1.94434H759.984l.506,10.43579,19.98273-3.38013,6.39471,10.02661a30.398,30.398,0,0,0,8.2215-4.69848q9.71923-7.91748,9.71972-23.61572c0-.91016-.04235-1.79731-.10833-2.67157Z"/>
        <polygon class="cls-1" points="714.809 1.44 714.809 4.021 716.865 1.44 714.809 1.44"/>
        <polygon class="cls-1" points="732.63 1.44 716.865 1.44 714.809 4.021 714.809 30.006 733.803 29.795 732.63 1.44"/>
        <polygon class="cls-1" points="757.973 1.44 732.63 1.44 733.803 29.795 747.641 29.642 747.641 25.344 757.389 25.344 759.072 24.097 757.973 1.44"/>
        <polygon class="cls-1" points="759.072 24.097 757.389 25.344 759.132 25.344 759.072 24.097"/>
        <polygon class="cls-1" points="759.984 42.912 747.641 42.912 747.641 32.568 734.326 42.435 735.839 78.997 747.641 88.135 747.641 64.944 756.9 64.944 751.528 54.864 760.49 53.348 759.984 42.912"/>
        <polygon class="cls-1" points="747.641 29.642 733.803 29.795 734.326 42.435 747.641 32.568 747.641 29.642"/>
        <polygon class="cls-1" points="733.803 29.795 714.809 30.006 714.809 56.899 734.326 42.435 733.803 29.795"/>
        <polygon class="cls-1" points="714.809 56.899 714.809 62.712 735.839 78.997 734.326 42.435 714.809 56.899"/>
        <polygon class="cls-1" points="714.809 62.712 714.809 96.48 736.562 96.48 735.839 78.997 714.809 62.712"/>
        <polygon class="cls-1" points="736.562 96.48 747.641 96.48 747.641 88.135 735.839 78.997 736.562 96.48"/>
      </g>
    </g>
  </g>
</svg>
