<svg xmlns="http://www.w3.org/2000/svg" width="661.82031" height="97.91992" viewBox="0 0 661.82031 97.91992">
  <defs>
    <style>
      .cls-1 {
        fill: #231f20;
      }
    </style>
  </defs>
  <g id="Layer_2" data-name="Layer 2">
    <g id="Content">
      <g id="summer">
        <polygon class="cls-1" points="35.214 39.609 38.951 44.406 37.933 39.959 35.214 39.609"/>
        <path class="cls-1" d="M6.523,35.9173l-2.07526-.267a22.21259,22.21259,0,0,0,4.02344,11.848Z"/>
        <path class="cls-1" d="M6.523,35.9173l1.94818,11.581c.05823.07745.1095.16126.169.23755a27.17857,27.17857,0,0,0,11.23193,8.42432c1.95007.81311,3.95251,1.54162,5.9884,2.21655l7.13111-19.05353Z"/>
        <path class="cls-1" d="M35.21362,39.60913l-2.222-.28595L25.86047,58.37671c2.77484.91986,5.62,1.727,8.55555,2.39136l8.7221,1.91851L38.95135,44.4057Z"/>
        <path class="cls-1" d="M29.36285,2.53894a46.86214,46.86214,0,0,0-4.523,1.56506,38.4249,38.4249,0,0,0-9.88275,5.78278l16.40576,1.38489Z"/>
        <polygon class="cls-1" points="33.64 37.59 35.214 39.609 37.933 39.959 35.967 31.374 33.64 37.59"/>
        <path class="cls-1" d="M31.36285,11.27167,14.95709,9.88678c-.59656.48944-1.1781.9892-1.7276,1.51068L33.64026,37.59009,35.9668,31.3739Z"/>
        <path class="cls-1" d="M6.523,35.9173,4.92566,26.42194A32.49942,32.49942,0,0,0,4.32031,32.688c0,1.0263.05188,2.00513.12744,2.96228Z"/>
        <path class="cls-1" d="M13.22949,11.39746a29.05332,29.05332,0,0,0-3.65332,4.1543A27.52364,27.52364,0,0,0,4.92566,26.42194L6.523,35.9173l26.46857,3.40588.64868-1.73309Z"/>
        <polygon class="cls-1" points="33.64 37.59 32.992 39.323 35.214 39.609 33.64 37.59"/>
        <path class="cls-1" d="M11.35437,64.637,0,83.51953a53.165,53.165,0,0,0,13.39209,7.84863c.03455.01441.07068.02686.10529.0412L15.126,87.05774Z"/>
        <path class="cls-1" d="M15.126,87.05774l-1.62866,4.35162q1.246.51636,2.52722.98981Z"/>
        <path class="cls-1" d="M13.24805,61.48779,11.35437,64.637,15.126,87.05774,22.59222,67.109A46.88065,46.88065,0,0,1,13.24805,61.48779Z"/>
        <path class="cls-1" d="M35.56836,71.71191a72.07138,72.07138,0,0,1-12.24023-4.248c-.25464-.11475-.48609-.23828-.73591-.35486L15.126,87.05774l.89856,5.34143a82.32337,82.32337,0,0,0,8.04229,2.48816L46.66132,78.06989l-1.10816-4.83851A50.64194,50.64194,0,0,1,35.56836,71.71191Z"/>
        <path class="cls-1" d="M24.06689,94.88733c2.0113.51593,4.0561.99072,6.17334,1.37634a100.8859,100.8859,0,0,0,18.14356,1.65625c.94958,0,1.88531-.01965,2.81152-.053l-4.534-19.797Z"/>
        <path class="cls-1" d="M29.36285,2.53894l2,8.73273L43.119,12.2641,47.70142.02039A68.5537,68.5537,0,0,0,29.36285,2.53894Z"/>
        <path class="cls-1" d="M92.87988,13.53613A57.23,57.23,0,0,0,73.65625,3.38379,82.56648,82.56648,0,0,0,49.10449,0c-.47473,0-.93548.01349-1.40307.02039L43.119,12.2641l48.01788,4.05347Z"/>
        <polygon class="cls-1" points="31.363 11.272 35.967 31.374 43.119 12.264 31.363 11.272"/>
        <path class="cls-1" d="M48.38379,33.55176q-4.03272-1.00562-6.69531-1.87158-2.66748-.86427-2.66407-2.59229A3.2863,3.2863,0,0,1,39.96,26.78418a6.50345,6.50345,0,0,1,3.168-1.584,24.8617,24.8617,0,0,1,5.97656-.57618,43.99686,43.99686,0,0,1,16.05567,2.87989,66.66212,66.66212,0,0,1,14.18359,7.63183L91.13684,16.31757,43.119,12.2641,35.9668,31.3739,37.933,39.95905l44.6911,5.75067c-4.92187-3.98889-11.94854-7.03986-21.1358-9.13355Z"/>
        <path class="cls-1" d="M83.44824,46.36816c-.25915-.22638-.55194-.43786-.82416-.65844L37.933,39.95905l1.01837,4.44665L58.38464,69.344,85.88306,48.8764A21.22475,21.22475,0,0,0,83.44824,46.36816Z"/>
        <path class="cls-1" d="M85.88306,48.8764,58.38464,69.344,70.43127,84.80316,90.37372,58.8985A21.57276,21.57276,0,0,0,85.88306,48.8764Z"/>
        <path class="cls-1" d="M90.37372,58.8985,70.43127,84.80316l5.314,6.81928a31.669,31.669,0,0,0,9.50281-8.31775q5.61621-7.415,5.61621-18.93653A30.3332,30.3332,0,0,0,90.37372,58.8985Z"/>
        <path class="cls-1" d="M43.13812,62.68658l5.67829,1.249a22.64359,22.64359,0,0,1,5.97558,2.0166,3.31544,3.31544,0,0,1,1.65625,3.02441,3.3496,3.3496,0,0,1-.792,2.23145,5.6548,5.6548,0,0,1-2.80859,1.51269,20.70455,20.70455,0,0,1-5.47168.5752c-.596,0-1.21161-.03644-1.82282-.06452l1.10816,4.83851L58.38464,69.344,38.95135,44.4057Z"/>
        <path class="cls-1" d="M46.66132,78.06989l4.534,19.79705A66.50894,66.50894,0,0,0,61.2168,96.7724l9.21447-11.96924L58.38464,69.344Z"/>
        <path class="cls-1" d="M70.43127,84.80316,61.2168,96.7724a53.42063,53.42063,0,0,0,8.83886-2.45209,37.92833,37.92833,0,0,0,5.68958-2.69787Z"/>
        <polygon class="cls-1" points="110.019 1.44 98.928 1.44 98.928 16.975 113.043 18.167 110.019 1.44"/>
        <polygon class="cls-1" points="113.043 18.167 98.928 16.975 98.928 39.167 114.469 27.599 114.695 27.306 113.043 18.167"/>
        <polygon class="cls-1" points="114.695 27.306 114.469 27.599 114.715 27.417 114.695 27.306"/>
        <polygon class="cls-1" points="98.928 39.167 98.928 47.787 114.469 27.599 98.928 39.167"/>
        <polygon class="cls-1" points="114.469 27.599 98.928 47.787 98.928 47.808 118.864 50.373 114.715 27.417 114.469 27.599"/>
        <path class="cls-1" d="M98.92773,47.80762V55.584q0,21.31349,11.44825,31.82422a31.75915,31.75915,0,0,0,3.08258,2.47486l7.79638-26.28339L118.86414,50.373Z"/>
        <path class="cls-1" d="M113.45856,89.88306a40.29641,40.29641,0,0,0,13.644,6.06689l-5.8476-32.35028Z"/>
        <polygon class="cls-1" points="190.8 24.731 189.722 24.64 190.8 27.109 190.8 24.731"/>
        <polygon class="cls-1" points="179.594 1.44 189.722 24.64 190.8 24.731 190.8 1.44 179.594 1.44"/>
        <polygon class="cls-1" points="132.624 1.44 110.019 1.44 113.043 18.167 121.201 18.855 132.624 4.017 132.624 1.44"/>
        <polygon class="cls-1" points="121.201 18.855 125.706 19.236 132.624 14.086 132.624 4.017 121.201 18.855"/>
        <polygon class="cls-1" points="132.624 19.82 132.624 14.086 125.706 19.236 132.624 19.82"/>
        <polygon class="cls-1" points="114.715 27.417 118.864 50.373 124.946 51.156 132.624 25.272 132.624 19.82 125.706 19.236 114.715 27.417"/>
        <polygon class="cls-1" points="114.695 27.306 114.715 27.417 125.706 19.236 121.201 18.855 114.695 27.306"/>
        <polygon class="cls-1" points="113.043 18.167 114.695 27.306 121.201 18.855 113.043 18.167"/>
        <polygon class="cls-1" points="132.624 52.144 132.624 25.272 124.946 51.156 132.624 52.144"/>
        <polygon class="cls-1" points="170.957 57.076 172.702 69.473 185.459 58.942 170.957 57.076"/>
        <path class="cls-1" d="M185.45874,58.94214,172.70239,69.4726l2.85419,20.26971,10.93549-12.10162a47.75082,47.75082,0,0,0,4.18853-18.02662Z"/>
        <polygon class="cls-1" points="121.255 63.6 124.946 51.156 118.864 50.373 121.255 63.6"/>
        <path class="cls-1" d="M157.24805,55.31207v2.86371q0,7.20264-3.168,10.87207-3.16992,3.67236-9.2168,3.67285-5.90625,0-9.07129-3.67285-3.16992-3.67236-3.168-10.87207V52.14355l-7.67779-.988-3.69129,12.44409L127.10254,95.95a65.63042,65.63042,0,0,0,11.40967,1.74671L172.70239,69.4726l-1.7456-12.39655Z"/>
        <path class="cls-1" d="M138.51221,97.69666c2.04022.144,4.152.22326,6.35107.22326q18.3436,0,29.33313-6.67242l1.36017-1.50519L172.70239,69.4726Z"/>
        <path class="cls-1" d="M175.55658,89.74231l.08185.58142a30.85877,30.85877,0,0,0,10.85364-12.683Z"/>
        <path class="cls-1" d="M174.19641,91.2475q.73746-.447,1.442-.92377l-.08185-.58142Z"/>
        <polygon class="cls-1" points="189.722 24.64 166.109 22.646 166.938 28.536 190.8 49.45 190.8 27.109 189.722 24.64"/>
        <polygon class="cls-1" points="179.594 1.44 163.123 1.44 166.109 22.646 189.722 24.64 179.594 1.44"/>
        <polygon class="cls-1" points="157.248 1.44 157.248 20.043 159.59 22.096 166.109 22.646 163.123 1.44 157.248 1.44"/>
        <polygon class="cls-1" points="159.59 22.096 166.938 28.536 166.109 22.646 159.59 22.096"/>
        <polygon class="cls-1" points="157.248 21.898 159.59 22.096 157.248 20.043 157.248 21.898"/>
        <polygon class="cls-1" points="159.59 22.096 157.248 21.898 157.248 55.312 170.957 57.076 166.938 28.536 159.59 22.096"/>
        <path class="cls-1" d="M190.7998,55.584v-1.0509l-5.34106,4.40906,5.22186.67193C190.75269,58.30127,190.7998,56.96478,190.7998,55.584Z"/>
        <polygon class="cls-1" points="166.938 28.536 170.957 57.076 185.459 58.942 190.8 54.533 190.8 49.45 166.938 28.536"/>
        <polygon class="cls-1" points="317.685 21.738 322.552 17.415 305.796 9.735 317.685 21.738"/>
        <polygon class="cls-1" points="317.685 21.738 322.207 26.304 325.438 19.956 325.438 18.737 322.552 17.415 317.685 21.738"/>
        <polygon class="cls-1" points="325.438 1.44 322.179 1.44 325.438 4.364 325.438 1.44"/>
        <polygon class="cls-1" points="322.179 1.44 297.58 1.44 305.796 9.735 322.552 17.415 325.438 14.852 325.438 4.364 322.179 1.44"/>
        <polygon class="cls-1" points="325.438 18.737 325.438 14.852 322.552 17.415 325.438 18.737"/>
        <polygon class="cls-1" points="325.438 29.565 325.438 19.956 322.207 26.304 325.438 29.565"/>
        <polygon class="cls-1" points="251.124 4.735 250.27 1.44 234.1 1.44 231.397 21.004 231.4 21.017 251.124 4.735"/>
        <polygon class="cls-1" points="226.385 1.44 231.397 21.004 234.1 1.44 226.385 1.44"/>
        <polygon class="cls-1" points="251.124 4.735 231.4 21.017 232.783 26.414 251.403 5.809 251.124 4.735"/>
        <polygon class="cls-1" points="272.957 31.666 274.233 31.774 273.335 30.21 272.957 31.666"/>
        <polygon class="cls-1" points="272.957 31.666 272.898 31.895 274.363 60.219 285.09 50.691 274.233 31.774 272.957 31.666"/>
        <polygon class="cls-1" points="274.363 60.219 276.239 96.48 277.774 96.48 288.891 57.313 285.09 50.691 274.363 60.219"/>
        <polygon class="cls-1" points="232.783 26.414 233.27 28.316 257.778 30.385 251.403 5.809 232.783 26.414"/>
        <polygon class="cls-1" points="247.544 84.04 247.869 85.31 250.99 96.48 276.239 96.48 274.363 60.219 247.544 84.04"/>
        <polygon class="cls-1" points="269.854 43.632 265.678 61.344 265.39 61.344 261.214 43.632 257.778 30.385 233.27 28.316 247.544 84.04 274.363 60.219 272.898 31.895 269.854 43.632"/>
        <polygon class="cls-1" points="296.206 77.402 298.186 73.51 296.206 70.059 296.206 77.402"/>
        <polygon class="cls-1" points="285.09 50.691 292.684 43.945 295.626 33.58 274.233 31.774 285.09 50.691"/>
        <polygon class="cls-1" points="288.891 57.313 292.684 43.945 285.09 50.691 288.891 57.313"/>
        <polygon class="cls-1" points="296.516 40.541 303.596 34.252 296.609 33.663 296.516 40.541"/>
        <polygon class="cls-1" points="296.516 40.541 296.206 63.504 296.206 70.059 298.186 73.51 317.563 35.431 303.596 34.252 296.516 40.541"/>
        <polygon class="cls-1" points="287.697 1.44 305.796 9.735 297.58 1.44 287.697 1.44"/>
        <polygon class="cls-1" points="287.697 1.44 280.798 1.44 273.335 30.21 274.233 31.774 295.626 33.58 296.206 31.536 296.638 31.536 296.609 33.663 303.596 34.252 317.685 21.738 305.796 9.735 287.697 1.44"/>
        <polygon class="cls-1" points="303.596 34.252 317.563 35.431 322.207 26.304 317.685 21.738 303.596 34.252"/>
        <polygon class="cls-1" points="325.438 78.59 325.438 54.423 306.929 86.305 325.438 78.59"/>
        <polygon class="cls-1" points="317.563 35.431 325.438 36.096 325.438 29.565 322.207 26.304 317.563 35.431"/>
        <polygon class="cls-1" points="298.186 73.51 305.8 86.775 306.929 86.305 325.438 54.423 325.438 36.096 317.563 35.431 298.186 73.51"/>
        <polygon class="cls-1" points="296.206 77.402 296.206 90.774 305.8 86.775 298.186 73.51 296.206 77.402"/>
        <polygon class="cls-1" points="226.385 1.44 203.326 1.44 203.326 25.788 223.553 27.496 231.394 21.022 231.397 21.004 226.385 1.44"/>
        <polygon class="cls-1" points="231.397 21.004 231.394 21.022 231.4 21.017 231.397 21.004"/>
        <polygon class="cls-1" points="223.553 27.496 230.42 28.075 231.394 21.022 223.553 27.496"/>
        <polygon class="cls-1" points="231.394 21.022 230.42 28.075 231.221 28.143 232.783 26.414 231.4 21.017 231.394 21.022"/>
        <polygon class="cls-1" points="203.326 25.788 203.326 44.193 223.553 27.496 203.326 25.788"/>
        <polygon class="cls-1" points="223.553 27.496 203.326 44.193 203.326 59.012 230.265 29.201 230.42 28.075 223.553 27.496"/>
        <polygon class="cls-1" points="230.42 28.075 230.265 29.201 231.221 28.143 230.42 28.075"/>
        <polygon class="cls-1" points="231.221 28.143 233.27 28.316 232.783 26.414 231.221 28.143"/>
        <polygon class="cls-1" points="203.326 59.012 203.326 60.429 223.507 78.116 230.265 29.201 203.326 59.012"/>
        <polygon class="cls-1" points="233.27 28.316 231.221 28.143 230.265 29.201 223.507 78.116 232.702 86.175 232.702 63.504 232.27 31.536 232.846 31.536 247.52 84.061 247.544 84.04 233.27 28.316"/>
        <polygon class="cls-1" points="247.544 84.04 247.52 84.061 247.869 85.31 247.544 84.04"/>
        <polygon class="cls-1" points="203.326 60.429 203.326 96.48 220.969 96.48 223.507 78.116 203.326 60.429"/>
        <polygon class="cls-1" points="220.969 96.48 232.702 96.48 232.702 86.175 223.507 78.116 220.969 96.48"/>
        <polygon class="cls-1" points="306.225 87.517 306.929 86.305 305.8 86.775 306.225 87.517"/>
        <polygon class="cls-1" points="306.225 87.517 311.37 96.48 316.166 96.48 325.438 86.472 325.438 78.59 306.929 86.305 306.225 87.517"/>
        <polygon class="cls-1" points="296.206 90.774 296.206 96.48 301.021 96.48 306.225 87.517 305.8 86.775 296.206 90.774"/>
        <polygon class="cls-1" points="301.021 96.48 311.37 96.48 306.225 87.517 301.021 96.48"/>
        <polygon class="cls-1" points="325.438 96.48 325.438 86.472 316.166 96.48 325.438 96.48"/>
        <polygon class="cls-1" points="362.625 63.089 362.549 67.032 369.214 73.761 369.214 63.504 369.171 60.36 362.625 63.089"/>
        <polygon class="cls-1" points="362.549 67.032 362.625 63.089 359.806 64.263 362.549 67.032"/>
        <polygon class="cls-1" points="339.838 72.587 339.838 96.48 341.326 96.48 340.148 72.458 339.838 72.587"/>
        <polygon class="cls-1" points="340.148 72.458 341.326 96.48 361.983 96.48 362.549 67.032 359.806 64.263 340.148 72.458"/>
        <polygon class="cls-1" points="361.983 96.48 369.214 96.48 369.214 73.761 362.549 67.032 361.983 96.48"/>
        <polygon class="cls-1" points="368.89 39.566 368.72 39.75 368.893 39.764 368.89 39.566"/>
        <polygon class="cls-1" points="359.806 64.263 362.625 63.089 362.954 45.974 352.678 57.067 359.806 64.263"/>
        <polygon class="cls-1" points="368.893 39.764 368.72 39.75 366.975 41.634 368.942 43.398 368.893 39.764"/>
        <polygon class="cls-1" points="366.975 41.634 362.954 45.974 362.625 63.089 369.171 60.36 368.942 43.398 366.975 41.634"/>
        <polygon class="cls-1" points="339.838 70.927 339.838 72.587 340.148 72.458 340.062 70.685 339.838 70.927"/>
        <polygon class="cls-1" points="340.062 70.685 340.148 72.458 359.806 64.263 352.678 57.067 340.062 70.685"/>
        <polygon class="cls-1" points="398.705 48.049 398.717 47.836 397.726 43.632 397.345 42.166 371.861 40.015 393.827 50.083 398.705 48.049"/>
        <polygon class="cls-1" points="398.717 47.836 398.705 48.049 398.761 48.026 398.717 47.836"/>
        <polygon class="cls-1" points="381.922 55.045 373.919 47.865 376.551 57.284 381.922 55.045"/>
        <polygon class="cls-1" points="393.827 50.083 371.861 40.015 371.723 40.003 373.919 47.865 381.922 55.045 393.827 50.083"/>
        <polygon class="cls-1" points="371.861 40.015 397.345 42.166 390.594 16.138 370.973 37.318 371.706 39.944 371.861 40.015"/>
        <polygon class="cls-1" points="371.861 40.015 371.706 39.944 371.723 40.003 371.861 40.015"/>
        <polygon class="cls-1" points="339.838 70.927 340.062 70.685 339.838 66.122 339.838 70.927"/>
        <polygon class="cls-1" points="339.838 66.122 340.062 70.685 352.678 57.067 339.838 44.104 339.838 66.122"/>
        <polygon class="cls-1" points="339.838 1.44 339.838 2.062 340.538 1.44 339.838 1.44"/>
        <polygon class="cls-1" points="356.196 1.44 340.538 1.44 339.838 2.062 339.838 17.285 344.545 21.509 356.196 1.44"/>
        <polygon class="cls-1" points="339.838 17.285 339.838 25.338 341.8 26.237 344.545 21.509 339.838 17.285"/>
        <polygon class="cls-1" points="339.838 29.617 341.8 26.237 339.838 25.338 339.838 29.617"/>
        <polygon class="cls-1" points="363.145 36.02 363.81 1.44 356.196 1.44 344.545 21.509 358.185 33.747 363.145 36.02"/>
        <polygon class="cls-1" points="358.185 33.747 344.545 21.509 341.8 26.237 358.185 33.747"/>
        <polygon class="cls-1" points="368.781 31.536 369.357 31.536 370.973 37.318 390.594 16.138 386.781 1.44 363.81 1.44 363.145 36.02 368.877 38.647 368.781 31.536"/>
        <polygon class="cls-1" points="363.145 36.02 358.185 33.747 363.104 38.161 363.145 36.02"/>
        <polygon class="cls-1" points="358.185 33.747 341.8 26.237 339.838 29.617 339.838 37.312 363.083 39.274 363.104 38.161 358.185 33.747"/>
        <polygon class="cls-1" points="368.72 39.75 368.89 39.566 368.877 38.647 363.145 36.02 363.104 38.161 364.476 39.392 368.72 39.75"/>
        <polygon class="cls-1" points="364.476 39.392 363.104 38.161 363.083 39.274 364.476 39.392"/>
        <polygon class="cls-1" points="339.838 44.104 352.678 57.067 362.954 45.974 363.083 39.274 339.838 37.312 339.838 44.104"/>
        <polygon class="cls-1" points="368.72 39.75 364.476 39.392 366.975 41.634 368.72 39.75"/>
        <polygon class="cls-1" points="362.954 45.974 366.975 41.634 364.476 39.392 363.083 39.274 362.954 45.974"/>
        <polygon class="cls-1" points="461.949 21.686 460.812 22.161 461.949 23.849 461.949 21.686"/>
        <polygon class="cls-1" points="461.949 23.849 460.812 22.161 434.38 33.178 448.477 46.483 456.981 47.2 461.949 30.607 461.949 23.849"/>
        <polygon class="cls-1" points="461.949 30.607 456.981 47.2 461.949 47.62 461.949 30.607"/>
        <polygon class="cls-1" points="448.477 46.483 453.883 51.584 455.798 51.15 456.981 47.2 448.477 46.483"/>
        <polygon class="cls-1" points="455.798 51.15 461.949 49.757 461.949 47.62 456.981 47.2 455.798 51.15"/>
        <polygon class="cls-1" points="453.883 51.584 455.275 52.898 455.798 51.15 453.883 51.584"/>
        <polygon class="cls-1" points="455.275 52.898 461.949 59.196 461.949 49.757 455.798 51.15 455.275 52.898"/>
        <polygon class="cls-1" points="433.12 33.703 433.108 34.57 433.391 33.591 433.12 33.703"/>
        <polygon class="cls-1" points="448.6 75.187 461.949 81.305 461.949 59.196 455.275 52.898 448.6 75.187"/>
        <polygon class="cls-1" points="453.883 51.584 432.814 56.357 432.718 63.504 432.718 67.908 448.6 75.187 455.275 52.898 453.883 51.584"/>
        <polygon class="cls-1" points="448.477 46.483 432.965 45.173 432.814 56.357 453.883 51.584 448.477 46.483"/>
        <polygon class="cls-1" points="442.225 96.48 461.949 96.48 461.949 81.305 448.6 75.187 442.225 96.48"/>
        <polygon class="cls-1" points="432.718 67.908 432.718 96.48 442.225 96.48 448.6 75.187 432.718 67.908"/>
        <polygon class="cls-1" points="434.38 33.178 433.391 33.591 433.108 34.57 432.965 45.173 448.477 46.483 434.38 33.178"/>
        <polygon class="cls-1" points="432.701 31.594 414.053 13.995 406.544 42.943 410.212 43.252 431.966 34.185 432.701 31.594"/>
        <polygon class="cls-1" points="406.544 42.943 406.365 43.632 406.045 44.989 410.212 43.252 406.544 42.943"/>
        <polygon class="cls-1" points="433.696 32.533 433.391 33.591 434.38 33.178 433.696 32.533"/>
        <polygon class="cls-1" points="433.696 32.533 433.143 32.011 433.12 33.703 433.391 33.591 433.696 32.533"/>
        <polygon class="cls-1" points="461.949 21.686 461.949 1.44 446.852 1.44 460.812 22.161 461.949 21.686"/>
        <polygon class="cls-1" points="432.718 31.536 433.149 31.536 433.143 32.011 433.696 32.533 442.656 1.44 417.31 1.44 414.053 13.995 432.701 31.594 432.718 31.536"/>
        <polygon class="cls-1" points="460.812 22.161 446.852 1.44 442.656 1.44 433.696 32.533 434.38 33.178 460.812 22.161"/>
        <polygon class="cls-1" points="431.966 34.185 410.212 43.252 428.944 44.834 431.966 34.185"/>
        <polygon class="cls-1" points="410.212 43.252 406.045 44.989 403.77 54.64 423.583 63.721 425.183 58.085 417.635 59.795 425.183 58.085 428.944 44.834 410.212 43.252"/>
        <polygon class="cls-1" points="398.705 48.049 393.827 50.083 398.483 52.217 398.705 48.049"/>
        <polygon class="cls-1" points="398.761 48.026 398.705 48.049 398.483 52.217 399.903 52.867 398.761 48.026"/>
        <polygon class="cls-1" points="398.483 52.217 393.827 50.083 381.922 55.045 397.585 69.099 398.483 52.217"/>
        <polygon class="cls-1" points="381.922 55.045 376.551 57.284 385.846 90.553 391.717 96.48 396.127 96.48 397.585 69.099 381.922 55.045"/>
        <polygon class="cls-1" points="423.583 63.721 403.77 54.64 402.189 61.344 401.901 61.344 399.903 52.867 398.483 52.217 397.585 69.099 417.09 86.6 423.583 63.721"/>
        <polygon class="cls-1" points="397.585 69.099 396.127 96.48 414.286 96.48 417.09 86.6 397.585 69.099"/>
        <polygon class="cls-1" points="387.502 96.48 391.717 96.48 385.846 90.553 387.502 96.48"/>
        <polygon class="cls-1" points="476.35 15.684 486.222 11.569 476.35 3.402 476.35 15.684"/>
        <polygon class="cls-1" points="476.35 1.44 476.35 3.402 486.222 11.569 510.521 1.44 476.35 1.44"/>
        <polygon class="cls-1" points="553.73 96.48 556.989 96.48 556.989 90.071 553.67 96.222 553.73 96.48"/>
        <polygon class="cls-1" points="553.53 96.48 553.73 96.48 553.67 96.222 553.53 96.48"/>
        <polygon class="cls-1" points="518.147 1.44 510.521 1.44 486.222 11.569 509.901 31.157 509.901 26.064 518.267 26.064 518.147 1.44"/>
        <polygon class="cls-1" points="518.147 1.44 518.267 26.064 537.37 26.064 531.65 1.44 518.147 1.44"/>
        <polygon class="cls-1" points="537.37 26.064 550.699 26.064 555.262 21.911 555.262 1.44 531.65 1.44 537.37 26.064"/>
        <polygon class="cls-1" points="555.262 26.064 555.262 21.911 550.699 26.064 555.262 26.064"/>
        <polygon class="cls-1" points="545.244 60.393 545.064 60.624 545.399 60.624 545.37 60.498 545.244 60.393"/>
        <polygon class="cls-1" points="545.399 60.624 545.523 60.624 545.37 60.498 545.399 60.624"/>
        <polygon class="cls-1" points="509.901 37.872 509.901 31.157 486.222 11.569 476.35 15.684 476.35 45.223 477.093 46.327 514.417 37.872 509.901 37.872"/>
        <polygon class="cls-1" points="518.396 52.385 521.496 52.647 528.344 46.413 518.326 38.126 518.396 52.385"/>
        <polygon class="cls-1" points="521.496 52.647 537.514 53.999 528.344 46.413 521.496 52.647"/>
        <polygon class="cls-1" points="518.326 38.126 518.019 37.872 514.417 37.872 477.093 46.327 478.93 49.053 518.396 52.385 518.326 38.126"/>
        <polygon class="cls-1" points="518.601 94.491 536.288 71.855 518.491 71.855 518.601 94.491"/>
        <polygon class="cls-1" points="518.436 60.624 518.411 55.455 512.732 60.624 518.436 60.624"/>
        <polygon class="cls-1" points="518.396 52.385 478.93 49.053 496.612 75.297 509.901 63.2 509.901 60.624 512.732 60.624 518.411 55.455 518.396 52.385"/>
        <polygon class="cls-1" points="518.491 71.855 509.901 71.855 509.901 63.2 496.612 75.297 510.883 96.48 517.047 96.48 518.601 94.491 518.491 71.855"/>
        <polygon class="cls-1" points="518.396 52.385 518.411 55.455 521.496 52.647 518.396 52.385"/>
        <polygon class="cls-1" points="521.496 52.647 518.411 55.455 518.436 60.624 545.064 60.624 545.244 60.393 537.514 53.999 521.496 52.647"/>
        <polygon class="cls-1" points="517.047 96.48 518.611 96.48 518.601 94.491 517.047 96.48"/>
        <polygon class="cls-1" points="553.67 96.222 556.989 90.071 556.989 71.855 548.009 71.855 553.67 96.222"/>
        <polygon class="cls-1" points="536.288 71.855 518.601 94.491 518.611 96.48 553.53 96.48 553.67 96.222 548.009 71.855 536.288 71.855"/>
        <polygon class="cls-1" points="476.35 46.495 477.093 46.327 476.35 45.223 476.35 46.495"/>
        <polygon class="cls-1" points="476.35 46.495 476.35 48.836 478.93 49.053 477.093 46.327 476.35 46.495"/>
        <polygon class="cls-1" points="476.35 48.836 476.35 72.787 487.652 83.453 496.612 75.297 478.93 49.053 476.35 48.836"/>
        <polygon class="cls-1" points="496.612 75.297 487.652 83.453 501.456 96.48 510.883 96.48 496.612 75.297"/>
        <polygon class="cls-1" points="476.35 87.906 480.614 89.86 487.652 83.453 476.35 72.787 476.35 87.906"/>
        <polygon class="cls-1" points="480.614 89.86 495.059 96.48 501.456 96.48 487.652 83.453 480.614 89.86"/>
        <polygon class="cls-1" points="476.35 93.741 480.614 89.86 476.35 87.906 476.35 93.741"/>
        <polygon class="cls-1" points="476.35 93.741 476.35 96.48 495.059 96.48 480.614 89.86 476.35 93.741"/>
        <polygon class="cls-1" points="537.514 53.999 545.244 60.393 545.323 60.293 543.987 54.545 537.514 53.999"/>
        <polygon class="cls-1" points="545.323 60.293 546.478 58.815 546.478 54.755 543.987 54.545 545.323 60.293"/>
        <polygon class="cls-1" points="543.987 54.545 546.478 54.755 546.478 37.872 540.114 37.872 543.987 54.545"/>
        <polygon class="cls-1" points="537.727 37.872 528.344 46.413 537.514 53.999 543.987 54.545 540.114 37.872 537.727 37.872"/>
        <polygon class="cls-1" points="518.326 38.126 528.344 46.413 537.727 37.872 518.325 37.872 518.326 38.126"/>
        <polygon class="cls-1" points="518.325 37.872 518.019 37.872 518.326 38.126 518.325 37.872"/>
        <polygon class="cls-1" points="545.244 60.393 545.37 60.498 545.323 60.293 545.244 60.393"/>
        <polygon class="cls-1" points="545.37 60.498 545.523 60.624 546.478 60.624 546.478 58.815 545.323 60.293 545.37 60.498"/>
        <path class="cls-1" d="M629.98584,62.29126c.621-.10681,1.25244-.20441,1.85236-.33008l-2.09894-.17718Z"/>
        <path class="cls-1" d="M605.82361,59.76514l2.75928,5.17822h6.58117l3.31153-1.72754a67.83208,67.83208,0,0,0,11.51025-.92456l-.24658-.50726Z"/>
        <path class="cls-1" d="M624.6153,51.24335l5.124,10.54065,2.09894.17718a42.29118,42.29118,0,0,0,6.71276-1.96667l-6.39471-10.02674Z"/>
        <polygon class="cls-1" points="603.212 54.864 605.824 59.765 629.739 61.784 624.615 51.243 603.212 54.864"/>
        <path class="cls-1" d="M631.8382,61.96118c-.59992.12567-1.23133.22327-1.85236.33008l16.61975,34.18921h15.21472L640.25854,62.672Z"/>
        <path class="cls-1" d="M618.47559,63.21582l-3.31153,1.72754h-6.58117L625.3877,96.48047h21.21789L629.98584,62.29126A67.83208,67.83208,0,0,1,618.47559,63.21582Z"/>
        <path class="cls-1" d="M631.8382,61.96118l8.42034.71082L638.551,59.99451A42.29118,42.29118,0,0,1,631.8382,61.96118Z"/>
        <polygon class="cls-1" points="566.492 11.688 577.751 1.44 566.492 1.44 566.492 11.688"/>
        <polygon class="cls-1" points="566.492 11.688 566.492 26.076 573.255 24.544 591.308 1.44 577.751 1.44 566.492 11.688"/>
        <polygon class="cls-1" points="566.492 33.2 573.255 24.544 566.492 26.076 566.492 33.2"/>
        <polygon class="cls-1" points="602.498 5.745 604.822 1.44 600.405 1.44 602.498 5.745"/>
        <polygon class="cls-1" points="591.308 1.44 573.255 24.544 595.013 19.615 602.498 5.745 600.405 1.44 591.308 1.44"/>
        <polygon class="cls-1" points="566.492 33.2 566.492 56.445 574.76 57.143 595.013 19.615 573.255 24.544 566.492 33.2"/>
        <polygon class="cls-1" points="566.492 72.463 574.76 57.143 566.492 56.445 566.492 72.463"/>
        <polygon class="cls-1" points="566.492 96.48 570.6 96.48 575.892 85.746 566.492 77.97 566.492 96.48"/>
        <polygon class="cls-1" points="570.6 96.48 588.868 96.48 575.892 85.746 570.6 96.48"/>
        <polygon class="cls-1" points="625.473 12.716 616.884 2.59 610.186 16.179 625.473 12.716"/>
        <path class="cls-1" d="M644.75153,8.34869Q634.99393,1.44836,618.044,1.43994h-.5926l-.56707,1.15033,8.58905,10.12531Z"/>
        <polygon class="cls-1" points="605.668 25.344 612.025 25.344 608.869 18.85 605.668 25.344"/>
        <path class="cls-1" d="M656.49219,31.68018q0-13.67945-9.93653-21.96c-.57684-.48065-1.18359-.93267-1.80413-1.37152l-19.2782,4.36689L653.774,46.07813A35.31412,35.31412,0,0,0,656.49219,31.68018Z"/>
        <path class="cls-1" d="M625.47333,12.71558l-15.28748,3.46295-1.31708,2.67187,3.1565,6.49335h.25891q5.32617,0,7.99219,2.01611,2.66161,2.01856,2.66406,6.76807,0,4.897-2.66406,6.83984c-.15686.11432-.32923.21729-.49982.32154l4.83875,9.954,7.54095-1.27558L638.551,59.99451a30.40144,30.40144,0,0,0,8.2215-4.69861,24.49734,24.49734,0,0,0,7.00153-9.21777Z"/>
        <path class="cls-1" d="M619.77655,41.28931a14.40939,14.40939,0,0,1-7.49237,1.6228h-12.96v-4.7l-9.94055,20.16516,16.43994,1.38782-2.6117-4.90137,21.40339-3.62042Z"/>
        <polygon class="cls-1" points="589.384 58.377 575.892 85.746 588.868 96.48 599.324 96.48 599.324 64.943 608.583 64.943 605.824 59.765 589.384 58.377"/>
        <polygon class="cls-1" points="566.492 72.463 566.492 77.97 575.892 85.746 589.384 58.377 574.76 57.143 566.492 72.463"/>
        <polygon class="cls-1" points="595.013 19.615 607.829 16.712 602.498 5.745 595.013 19.615"/>
        <polygon class="cls-1" points="617.451 1.44 615.909 1.44 616.884 2.59 617.451 1.44"/>
        <polygon class="cls-1" points="615.909 1.44 604.822 1.44 602.498 5.745 607.829 16.712 610.186 16.179 616.884 2.59 615.909 1.44"/>
        <polygon class="cls-1" points="608.869 18.85 610.186 16.179 607.829 16.712 608.869 18.85"/>
        <polygon class="cls-1" points="595.013 19.615 574.76 57.143 589.384 58.377 599.324 38.212 599.324 25.344 605.668 25.344 608.869 18.85 607.829 16.712 595.013 19.615"/>
      </g>
    </g>
  </g>
</svg>
